<?xml version="1.0" standalone="no"?>
<!DOCTYPE svg PUBLIC "-//W3C//DTD SVG 1.1//EN" "http://www.w3.org/Graphics/SVG/1.1/DTD/svg11.dtd">
<svg version="1.1" width="1200" height="534" onload="init(evt)" viewBox="0 0 1200 534" xmlns="http://www.w3.org/2000/svg" xmlns:xlink="http://www.w3.org/1999/xlink">
<!-- Flame graph stack visualization. See https://github.com/brendangregg/FlameGraph for latest version, and http://www.brendangregg.com/flamegraphs.html for examples. -->
<!-- NOTES:  -->
<defs>
	<linearGradient id="background" y1="0" y2="1" x1="0" x2="0" >
		<stop stop-color="#eeeeee" offset="5%" />
		<stop stop-color="#eeeeb0" offset="95%" />
	</linearGradient>
</defs>
<style type="text/css">
	text { font-family:Verdana; font-size:12px; fill:rgb(0,0,0); }
	#search, #ignorecase { opacity:0.1; cursor:pointer; }
	#search:hover, #search.show, #ignorecase:hover, #ignorecase.show { opacity:1; }
	#subtitle { text-anchor:middle; font-color:rgb(160,160,160); }
	#title { text-anchor:middle; font-size:17px}
	#unzoom { cursor:pointer; }
	#frames > *:hover { stroke:black; stroke-width:0.5; cursor:pointer; }
	.hide { display:none; }
	.parent { opacity:0.5; }
</style>
<script type="text/ecmascript">
<![CDATA[
	"use strict";
	var details, searchbtn, unzoombtn, matchedtxt, svg, searching, currentSearchTerm, ignorecase, ignorecaseBtn;
	function init(evt) {
		details = document.getElementById("details").firstChild;
		searchbtn = document.getElementById("search");
		ignorecaseBtn = document.getElementById("ignorecase");
		unzoombtn = document.getElementById("unzoom");
		matchedtxt = document.getElementById("matched");
		svg = document.getElementsByTagName("svg")[0];
		searching = 0;
		currentSearchTerm = null;

		// use GET parameters to restore a flamegraphs state.
		var params = get_params();
		if (params.x && params.y)
			zoom(find_group(document.querySelector('[x="' + params.x + '"][y="' + params.y + '"]')));
                if (params.s) search(params.s);
	}

	// event listeners
	window.addEventListener("click", function(e) {
		var target = find_group(e.target);
		if (target) {
			if (target.nodeName == "a") {
				if (e.ctrlKey === false) return;
				e.preventDefault();
			}
			if (target.classList.contains("parent")) unzoom(true);
			zoom(target);
			if (!document.querySelector('.parent')) {
				// we have basically done a clearzoom so clear the url
				var params = get_params();
				if (params.x) delete params.x;
				if (params.y) delete params.y;
				history.replaceState(null, null, parse_params(params));
				unzoombtn.classList.add("hide");
				return;
			}

			// set parameters for zoom state
			var el = target.querySelector("rect");
			if (el && el.attributes && el.attributes.y && el.attributes._orig_x) {
				var params = get_params()
				params.x = el.attributes._orig_x.value;
				params.y = el.attributes.y.value;
				history.replaceState(null, null, parse_params(params));
			}
		}
		else if (e.target.id == "unzoom") clearzoom();
		else if (e.target.id == "search") search_prompt();
		else if (e.target.id == "ignorecase") toggle_ignorecase();
	}, false)

	// mouse-over for info
	// show
	window.addEventListener("mouseover", function(e) {
		var target = find_group(e.target);
		if (target) details.nodeValue = "Function: " + g_to_text(target);
	}, false)

	// clear
	window.addEventListener("mouseout", function(e) {
		var target = find_group(e.target);
		if (target) details.nodeValue = ' ';
	}, false)

	// ctrl-F for search
	// ctrl-I to toggle case-sensitive search
	window.addEventListener("keydown",function (e) {
		if (e.keyCode === 114 || (e.ctrlKey && e.keyCode === 70)) {
			e.preventDefault();
			search_prompt();
		}
		else if (e.ctrlKey && e.keyCode === 73) {
			e.preventDefault();
			toggle_ignorecase();
		}
	}, false)

	// functions
	function get_params() {
		var params = {};
		var paramsarr = window.location.search.substr(1).split('&');
		for (var i = 0; i < paramsarr.length; ++i) {
			var tmp = paramsarr[i].split("=");
			if (!tmp[0] || !tmp[1]) continue;
			params[tmp[0]]  = decodeURIComponent(tmp[1]);
		}
		return params;
	}
	function parse_params(params) {
		var uri = "?";
		for (var key in params) {
			uri += key + '=' + encodeURIComponent(params[key]) + '&';
		}
		if (uri.slice(-1) == "&")
			uri = uri.substring(0, uri.length - 1);
		if (uri == '?')
			uri = window.location.href.split('?')[0];
		return uri;
	}
	function find_child(node, selector) {
		var children = node.querySelectorAll(selector);
		if (children.length) return children[0];
	}
	function find_group(node) {
		var parent = node.parentElement;
		if (!parent) return;
		if (parent.id == "frames") return node;
		return find_group(parent);
	}
	function orig_save(e, attr, val) {
		if (e.attributes["_orig_" + attr] != undefined) return;
		if (e.attributes[attr] == undefined) return;
		if (val == undefined) val = e.attributes[attr].value;
		e.setAttribute("_orig_" + attr, val);
	}
	function orig_load(e, attr) {
		if (e.attributes["_orig_"+attr] == undefined) return;
		e.attributes[attr].value = e.attributes["_orig_" + attr].value;
		e.removeAttribute("_orig_"+attr);
	}
	function g_to_text(e) {
		var text = find_child(e, "title").firstChild.nodeValue;
		return (text)
	}
	function g_to_func(e) {
		var func = g_to_text(e);
		// if there's any manipulation we want to do to the function
		// name before it's searched, do it here before returning.
		return (func);
	}
	function update_text(e) {
		var r = find_child(e, "rect");
		var t = find_child(e, "text");
		var w = parseFloat(r.attributes.width.value) -3;
		var txt = find_child(e, "title").textContent.replace(/\([^(]*\)$/,"");
		t.attributes.x.value = parseFloat(r.attributes.x.value) + 3;

		// Smaller than this size won't fit anything
		if (w < 2 * 12 * 0.59) {
			t.textContent = "";
			return;
		}

		t.textContent = txt;
		var sl = t.getSubStringLength(0, txt.length);
		// check if only whitespace or if we can fit the entire string into width w
		if (/^ *$/.test(txt) || sl < w)
			return;

		// this isn't perfect, but gives a good starting point
		// and avoids calling getSubStringLength too often
		var start = Math.floor((w/sl) * txt.length);
		for (var x = start; x > 0; x = x-2) {
			if (t.getSubStringLength(0, x + 2) <= w) {
				t.textContent = txt.substring(0, x) + "..";
				return;
			}
		}
		t.textContent = "";
	}

	// zoom
	function zoom_reset(e) {
		if (e.attributes != undefined) {
			orig_load(e, "x");
			orig_load(e, "width");
		}
		if (e.childNodes == undefined) return;
		for (var i = 0, c = e.childNodes; i < c.length; i++) {
			zoom_reset(c[i]);
		}
	}
	function zoom_child(e, x, ratio) {
		if (e.attributes != undefined) {
			if (e.attributes.x != undefined) {
				orig_save(e, "x");
				e.attributes.x.value = (parseFloat(e.attributes.x.value) - x - 10) * ratio + 10;
				if (e.tagName == "text")
					e.attributes.x.value = find_child(e.parentNode, "rect[x]").attributes.x.value + 3;
			}
			if (e.attributes.width != undefined) {
				orig_save(e, "width");
				e.attributes.width.value = parseFloat(e.attributes.width.value) * ratio;
			}
		}

		if (e.childNodes == undefined) return;
		for (var i = 0, c = e.childNodes; i < c.length; i++) {
			zoom_child(c[i], x - 10, ratio);
		}
	}
	function zoom_parent(e) {
		if (e.attributes) {
			if (e.attributes.x != undefined) {
				orig_save(e, "x");
				e.attributes.x.value = 10;
			}
			if (e.attributes.width != undefined) {
				orig_save(e, "width");
				e.attributes.width.value = parseInt(svg.width.baseVal.value) - (10 * 2);
			}
		}
		if (e.childNodes == undefined) return;
		for (var i = 0, c = e.childNodes; i < c.length; i++) {
			zoom_parent(c[i]);
		}
	}
	function zoom(node) {
		var attr = find_child(node, "rect").attributes;
		var width = parseFloat(attr.width.value);
		var xmin = parseFloat(attr.x.value);
		var xmax = parseFloat(xmin + width);
		var ymin = parseFloat(attr.y.value);
		var ratio = (svg.width.baseVal.value - 2 * 10) / width;

		// XXX: Workaround for JavaScript float issues (fix me)
		var fudge = 0.0001;

		unzoombtn.classList.remove("hide");

		var el = document.getElementById("frames").children;
		for (var i = 0; i < el.length; i++) {
			var e = el[i];
			var a = find_child(e, "rect").attributes;
			var ex = parseFloat(a.x.value);
			var ew = parseFloat(a.width.value);
			var upstack;
			// Is it an ancestor
			if (0 == 0) {
				upstack = parseFloat(a.y.value) > ymin;
			} else {
				upstack = parseFloat(a.y.value) < ymin;
			}
			if (upstack) {
				// Direct ancestor
				if (ex <= xmin && (ex+ew+fudge) >= xmax) {
					e.classList.add("parent");
					zoom_parent(e);
					update_text(e);
				}
				// not in current path
				else
					e.classList.add("hide");
			}
			// Children maybe
			else {
				// no common path
				if (ex < xmin || ex + fudge >= xmax) {
					e.classList.add("hide");
				}
				else {
					zoom_child(e, xmin, ratio);
					update_text(e);
				}
			}
		}
		search();
	}
	function unzoom(dont_update_text) {
		unzoombtn.classList.add("hide");
		var el = document.getElementById("frames").children;
		for(var i = 0; i < el.length; i++) {
			el[i].classList.remove("parent");
			el[i].classList.remove("hide");
			zoom_reset(el[i]);
			if(!dont_update_text) update_text(el[i]);
		}
		search();
	}
	function clearzoom() {
		unzoom();

		// remove zoom state
		var params = get_params();
		if (params.x) delete params.x;
		if (params.y) delete params.y;
		history.replaceState(null, null, parse_params(params));
	}

	// search
	function toggle_ignorecase() {
		ignorecase = !ignorecase;
		if (ignorecase) {
			ignorecaseBtn.classList.add("show");
		} else {
			ignorecaseBtn.classList.remove("show");
		}
		reset_search();
		search();
	}
	function reset_search() {
		var el = document.querySelectorAll("#frames rect");
		for (var i = 0; i < el.length; i++) {
			orig_load(el[i], "fill")
		}
		var params = get_params();
		delete params.s;
		history.replaceState(null, null, parse_params(params));
	}
	function search_prompt() {
		if (!searching) {
			var term = prompt("Enter a search term (regexp " +
			    "allowed, eg: ^ext4_)"
			    + (ignorecase ? ", ignoring case" : "")
			    + "\nPress Ctrl-i to toggle case sensitivity", "");
			if (term != null) search(term);
		} else {
			reset_search();
			searching = 0;
			currentSearchTerm = null;
			searchbtn.classList.remove("show");
			searchbtn.firstChild.nodeValue = "Search"
			matchedtxt.classList.add("hide");
			matchedtxt.firstChild.nodeValue = ""
		}
	}
	function search(term) {
		if (term) currentSearchTerm = term;
		if (currentSearchTerm === null) return;

		var re = new RegExp(currentSearchTerm, ignorecase ? 'i' : '');
		var el = document.getElementById("frames").children;
		var matches = new Object();
		var maxwidth = 0;
		for (var i = 0; i < el.length; i++) {
			var e = el[i];
			var func = g_to_func(e);
			var rect = find_child(e, "rect");
			if (func == null || rect == null)
				continue;

			// Save max width. Only works as we have a root frame
			var w = parseFloat(rect.attributes.width.value);
			if (w > maxwidth)
				maxwidth = w;

			if (func.match(re)) {
				// highlight
				var x = parseFloat(rect.attributes.x.value);
				orig_save(rect, "fill");
				rect.attributes.fill.value = "rgb(230,0,230)";

				// remember matches
				if (matches[x] == undefined) {
					matches[x] = w;
				} else {
					if (w > matches[x]) {
						// overwrite with parent
						matches[x] = w;
					}
				}
				searching = 1;
			}
		}
		if (!searching)
			return;
		var params = get_params();
		params.s = currentSearchTerm;
		history.replaceState(null, null, parse_params(params));

		searchbtn.classList.add("show");
		searchbtn.firstChild.nodeValue = "Reset Search";

		// calculate percent matched, excluding vertical overlap
		var count = 0;
		var lastx = -1;
		var lastw = 0;
		var keys = Array();
		for (k in matches) {
			if (matches.hasOwnProperty(k))
				keys.push(k);
		}
		// sort the matched frames by their x location
		// ascending, then width descending
		keys.sort(function(a, b){
			return a - b;
		});
		// Step through frames saving only the biggest bottom-up frames
		// thanks to the sort order. This relies on the tree property
		// where children are always smaller than their parents.
		var fudge = 0.0001;	// JavaScript floating point
		for (var k in keys) {
			var x = parseFloat(keys[k]);
			var w = matches[keys[k]];
			if (x >= lastx + lastw - fudge) {
				count += w;
				lastx = x;
				lastw = w;
			}
		}
		// display matched percent
		matchedtxt.classList.remove("hide");
		var pct = 100 * count / maxwidth;
		if (pct != 100) pct = pct.toFixed(1)
		matchedtxt.firstChild.nodeValue = "Matched: " + pct + "%";
	}
]]>
</script>
<rect x="0.0" y="0" width="1200.0" height="534.0" fill="url(#background)"  />
<text id="title" x="600.00" y="24" >Flame Graph</text>
<text id="details" x="10.00" y="517" > </text>
<text id="unzoom" x="10.00" y="24" class="hide">Reset Zoom</text>
<text id="search" x="1090.00" y="24" >Search</text>
<text id="ignorecase" x="1174.00" y="24" >ic</text>
<text id="matched" x="1090.00" y="517" > </text>
<g id="frames">
<g >
<title>sysvec_apic_timer_interrupt (2,158,426,870 samples, 2.09%)</title><rect x="1164.0" y="325" width="24.6" height="15.0" fill="rgb(220,69,16)" rx="2" ry="2" />
<text  x="1166.95" y="335.5" >s..</text>
</g>
<g >
<title>[stress-ng] (52,899,647 samples, 0.05%)</title><rect x="1189.0" y="373" width="0.6" height="15.0" fill="rgb(241,167,40)" rx="2" ry="2" />
<text  x="1192.04" y="383.5" ></text>
</g>
<g >
<title>asm_sysvec_apic_timer_interrupt (35,920,588 samples, 0.03%)</title><rect x="10.0" y="341" width="0.4" height="15.0" fill="rgb(232,127,30)" rx="2" ry="2" />
<text  x="13.00" y="351.5" ></text>
</g>
<g >
<title>__irq_exit_rcu (71,986,267 samples, 0.07%)</title><rect x="1187.4" y="293" width="0.8" height="15.0" fill="rgb(227,101,24)" rx="2" ry="2" />
<text  x="1190.39" y="303.5" ></text>
</g>
<g >
<title>sched_clock (35,964,826 samples, 0.03%)</title><rect x="1179.2" y="149" width="0.4" height="15.0" fill="rgb(212,33,7)" rx="2" ry="2" />
<text  x="1182.16" y="159.5" ></text>
</g>
<g >
<title>_raw_spin_lock (107,850,114 samples, 0.10%)</title><rect x="1164.4" y="213" width="1.2" height="15.0" fill="rgb(239,160,38)" rx="2" ry="2" />
<text  x="1167.36" y="223.5" ></text>
</g>
<g >
<title>x86_pmu_disable (35,920,588 samples, 0.03%)</title><rect x="10.0" y="165" width="0.4" height="15.0" fill="rgb(239,160,38)" rx="2" ry="2" />
<text  x="13.00" y="175.5" ></text>
</g>
<g >
<title>__sysvec_apic_timer_interrupt (2,050,368,592 samples, 1.99%)</title><rect x="1164.0" y="309" width="23.4" height="15.0" fill="rgb(242,173,41)" rx="2" ry="2" />
<text  x="1166.95" y="319.5" >_..</text>
</g>
<g >
<title>perf_event_task_tick (935,266,154 samples, 0.91%)</title><rect x="1166.8" y="197" width="10.7" height="15.0" fill="rgb(205,3,0)" rx="2" ry="2" />
<text  x="1169.83" y="207.5" ></text>
</g>
<g >
<title>__calc_delta.constprop.0 (36,059,792 samples, 0.03%)</title><rect x="1177.9" y="165" width="0.4" height="15.0" fill="rgb(232,127,30)" rx="2" ry="2" />
<text  x="1180.93" y="175.5" ></text>
</g>
<g >
<title>__libc_start_main (84,404,837 samples, 0.08%)</title><rect x="1189.0" y="437" width="1.0" height="15.0" fill="rgb(236,142,34)" rx="2" ry="2" />
<text  x="1192.04" y="447.5" ></text>
</g>
<g >
<title>do_vmi_align_munmap (30,970,162 samples, 0.03%)</title><rect x="1189.6" y="293" width="0.4" height="15.0" fill="rgb(211,29,7)" rx="2" ry="2" />
<text  x="1192.65" y="303.5" ></text>
</g>
<g >
<title>_raw_spin_lock_irq (35,989,613 samples, 0.03%)</title><rect x="1187.4" y="229" width="0.4" height="15.0" fill="rgb(231,122,29)" rx="2" ry="2" />
<text  x="1190.39" y="239.5" ></text>
</g>
<g >
<title>pvclock_clocksource_read_nowd (35,961,989 samples, 0.03%)</title><rect x="1182.9" y="245" width="0.4" height="15.0" fill="rgb(218,63,15)" rx="2" ry="2" />
<text  x="1185.87" y="255.5" ></text>
</g>
<g >
<title>perf_event_task_tick (35,920,588 samples, 0.03%)</title><rect x="10.0" y="197" width="0.4" height="15.0" fill="rgb(205,3,0)" rx="2" ry="2" />
<text  x="13.00" y="207.5" ></text>
</g>
<g >
<title>x86_pmu_disable (791,457,196 samples, 0.77%)</title><rect x="1167.7" y="165" width="9.0" height="15.0" fill="rgb(239,160,38)" rx="2" ry="2" />
<text  x="1170.65" y="175.5" ></text>
</g>
<g >
<title>do_syscall_64 (25,495,608 samples, 0.02%)</title><rect x="1189.0" y="325" width="0.3" height="15.0" fill="rgb(209,20,4)" rx="2" ry="2" />
<text  x="1192.04" y="335.5" ></text>
</g>
<g >
<title>ksys_read (27,404,039 samples, 0.03%)</title><rect x="1189.3" y="277" width="0.3" height="15.0" fill="rgb(229,113,27)" rx="2" ry="2" />
<text  x="1192.33" y="287.5" ></text>
</g>
<g >
<title>update_load_avg (107,933,289 samples, 0.10%)</title><rect x="1178.3" y="181" width="1.3" height="15.0" fill="rgb(240,165,39)" rx="2" ry="2" />
<text  x="1181.34" y="191.5" ></text>
</g>
<g >
<title>unmap_single_vma (30,970,162 samples, 0.03%)</title><rect x="1189.6" y="245" width="0.4" height="15.0" fill="rgb(225,93,22)" rx="2" ry="2" />
<text  x="1192.65" y="255.5" ></text>
</g>
<g >
<title>[stress-ng] (84,404,837 samples, 0.08%)</title><rect x="1189.0" y="453" width="1.0" height="15.0" fill="rgb(241,167,40)" rx="2" ry="2" />
<text  x="1192.04" y="463.5" ></text>
</g>
<g >
<title>tick_nohz_highres_handler (1,511,070,577 samples, 1.46%)</title><rect x="1164.0" y="261" width="17.2" height="15.0" fill="rgb(215,50,11)" rx="2" ry="2" />
<text  x="1166.95" y="271.5" ></text>
</g>
<g >
<title>do_vmi_munmap (30,970,162 samples, 0.03%)</title><rect x="1189.6" y="309" width="0.4" height="15.0" fill="rgb(253,223,53)" rx="2" ry="2" />
<text  x="1192.65" y="319.5" ></text>
</g>
<g >
<title>amd_pmu_disable_all (35,920,588 samples, 0.03%)</title><rect x="10.0" y="149" width="0.4" height="15.0" fill="rgb(213,38,9)" rx="2" ry="2" />
<text  x="13.00" y="159.5" ></text>
</g>
<g >
<title>ktime_get (35,899,474 samples, 0.03%)</title><rect x="1185.3" y="245" width="0.4" height="15.0" fill="rgb(207,10,2)" rx="2" ry="2" />
<text  x="1188.33" y="255.5" ></text>
</g>
<g >
<title>native_write_msr (36,012,461 samples, 0.03%)</title><rect x="1180.8" y="85" width="0.4" height="15.0" fill="rgb(237,151,36)" rx="2" ry="2" />
<text  x="1183.81" y="95.5" ></text>
</g>
<g >
<title>native_apic_msr_eoi (35,778,858 samples, 0.03%)</title><rect x="1187.0" y="293" width="0.4" height="15.0" fill="rgb(243,178,42)" rx="2" ry="2" />
<text  x="1189.98" y="303.5" ></text>
</g>
<g >
<title>_raw_spin_lock_irq (25,495,608 samples, 0.02%)</title><rect x="1189.0" y="37" width="0.3" height="15.0" fill="rgb(231,122,29)" rx="2" ry="2" />
<text  x="1192.04" y="47.5" ></text>
</g>
<g >
<title>generic_exec_single (36,012,461 samples, 0.03%)</title><rect x="1180.8" y="133" width="0.4" height="15.0" fill="rgb(234,134,32)" rx="2" ry="2" />
<text  x="1183.81" y="143.5" ></text>
</g>
<g >
<title>native_read_msr (179,943,779 samples, 0.17%)</title><rect x="1174.6" y="117" width="2.1" height="15.0" fill="rgb(211,30,7)" rx="2" ry="2" />
<text  x="1177.64" y="127.5" ></text>
</g>
<g >
<title>tick_sched_handle (35,920,588 samples, 0.03%)</title><rect x="10.0" y="245" width="0.4" height="15.0" fill="rgb(219,68,16)" rx="2" ry="2" />
<text  x="13.00" y="255.5" ></text>
</g>
<g >
<title>tick_do_update_jiffies64 (107,850,114 samples, 0.10%)</title><rect x="1164.4" y="229" width="1.2" height="15.0" fill="rgb(208,14,3)" rx="2" ry="2" />
<text  x="1167.36" y="239.5" ></text>
</g>
<g >
<title>lock_timer_base (35,996,654 samples, 0.03%)</title><rect x="1187.8" y="165" width="0.4" height="15.0" fill="rgb(215,46,11)" rx="2" ry="2" />
<text  x="1190.80" y="175.5" ></text>
</g>
<g >
<title>scheduler_tick (1,259,320,623 samples, 1.22%)</title><rect x="1166.8" y="213" width="14.4" height="15.0" fill="rgb(246,190,45)" rx="2" ry="2" />
<text  x="1169.83" y="223.5" ></text>
</g>
<g >
<title>tick_sched_do_timer (143,822,387 samples, 0.14%)</title><rect x="1164.0" y="245" width="1.6" height="15.0" fill="rgb(227,104,25)" rx="2" ry="2" />
<text  x="1166.95" y="255.5" ></text>
</g>
<g >
<title>perf_adjust_freq_unthr_context (35,920,588 samples, 0.03%)</title><rect x="10.0" y="181" width="0.4" height="15.0" fill="rgb(236,146,35)" rx="2" ry="2" />
<text  x="13.00" y="191.5" ></text>
</g>
<g >
<title>__x64_sys_mmap (25,495,608 samples, 0.02%)</title><rect x="1189.0" y="293" width="0.3" height="15.0" fill="rgb(223,83,19)" rx="2" ry="2" />
<text  x="1192.04" y="303.5" ></text>
</g>
<g >
<title>trigger_load_balance (144,060,242 samples, 0.14%)</title><rect x="1179.6" y="197" width="1.6" height="15.0" fill="rgb(228,108,26)" rx="2" ry="2" />
<text  x="1182.58" y="207.5" ></text>
</g>
<g >
<title>shmem_alloc_and_add_folio (25,495,608 samples, 0.02%)</title><rect x="1189.0" y="69" width="0.3" height="15.0" fill="rgb(234,133,32)" rx="2" ry="2" />
<text  x="1192.04" y="79.5" ></text>
</g>
<g >
<title>native_write_msr (539,529,754 samples, 0.52%)</title><rect x="1168.1" y="133" width="6.1" height="15.0" fill="rgb(237,151,36)" rx="2" ry="2" />
<text  x="1171.06" y="143.5" ></text>
</g>
<g >
<title>unmap_page_range (30,970,162 samples, 0.03%)</title><rect x="1189.6" y="229" width="0.4" height="15.0" fill="rgb(206,5,1)" rx="2" ry="2" />
<text  x="1192.65" y="239.5" ></text>
</g>
<g >
<title>zap_pmd_range.isra.0 (30,970,162 samples, 0.03%)</title><rect x="1189.6" y="213" width="0.4" height="15.0" fill="rgb(244,180,43)" rx="2" ry="2" />
<text  x="1192.65" y="223.5" ></text>
</g>
<g >
<title>hrtimer_interrupt (35,920,588 samples, 0.03%)</title><rect x="10.0" y="293" width="0.4" height="15.0" fill="rgb(228,109,26)" rx="2" ry="2" />
<text  x="13.00" y="303.5" ></text>
</g>
<g >
<title>pvclock_clocksource_read_nowd (35,964,826 samples, 0.03%)</title><rect x="1179.2" y="101" width="0.4" height="15.0" fill="rgb(218,63,15)" rx="2" ry="2" />
<text  x="1182.16" y="111.5" ></text>
</g>
<g >
<title>tick_nohz_highres_handler (35,987,954 samples, 0.03%)</title><rect x="1183.3" y="277" width="0.4" height="15.0" fill="rgb(215,50,11)" rx="2" ry="2" />
<text  x="1186.28" y="287.5" ></text>
</g>
<g >
<title>_raw_spin_lock_irqsave (143,789,832 samples, 0.14%)</title><rect x="1181.2" y="277" width="1.7" height="15.0" fill="rgb(247,195,46)" rx="2" ry="2" />
<text  x="1184.22" y="287.5" ></text>
</g>
<g >
<title>amd_pmu_addr_offset (35,959,687 samples, 0.03%)</title><rect x="1167.7" y="133" width="0.4" height="15.0" fill="rgb(227,104,25)" rx="2" ry="2" />
<text  x="1170.65" y="143.5" ></text>
</g>
<g >
<title>tick_nohz_highres_handler (35,920,588 samples, 0.03%)</title><rect x="10.0" y="261" width="0.4" height="15.0" fill="rgb(215,50,11)" rx="2" ry="2" />
<text  x="13.00" y="271.5" ></text>
</g>
<g >
<title>do_fault (25,495,608 samples, 0.02%)</title><rect x="1189.0" y="149" width="0.3" height="15.0" fill="rgb(248,200,47)" rx="2" ry="2" />
<text  x="1192.04" y="159.5" ></text>
</g>
<g >
<title>[stress-ng] (103,160,433,415 samples, 99.92%)</title><rect x="10.0" y="453" width="1179.0" height="15.0" fill="rgb(241,167,40)" rx="2" ry="2" />
<text  x="13.00" y="463.5" >[stress-ng]</text>
</g>
<g >
<title>do_syscall_64 (27,404,039 samples, 0.03%)</title><rect x="1189.3" y="325" width="0.3" height="15.0" fill="rgb(209,20,4)" rx="2" ry="2" />
<text  x="1192.33" y="335.5" ></text>
</g>
<g >
<title>cpuacct_account_field (35,953,392 samples, 0.03%)</title><rect x="1165.6" y="197" width="0.4" height="15.0" fill="rgb(240,163,39)" rx="2" ry="2" />
<text  x="1168.60" y="207.5" ></text>
</g>
<g >
<title>_raw_spin_lock (35,934,603 samples, 0.03%)</title><rect x="1166.8" y="181" width="0.4" height="15.0" fill="rgb(239,160,38)" rx="2" ry="2" />
<text  x="1169.83" y="191.5" ></text>
</g>
<g >
<title>hrtimer_interrupt (2,014,589,734 samples, 1.95%)</title><rect x="1164.0" y="293" width="23.0" height="15.0" fill="rgb(228,109,26)" rx="2" ry="2" />
<text  x="1166.95" y="303.5" >h..</text>
</g>
<g >
<title>[stress-ng] (103,160,433,415 samples, 99.92%)</title><rect x="10.0" y="389" width="1179.0" height="15.0" fill="rgb(241,167,40)" rx="2" ry="2" />
<text  x="13.00" y="399.5" >[stress-ng]</text>
</g>
<g >
<title>[stress-ng] (53,434,675 samples, 0.05%)</title><rect x="1189.0" y="405" width="0.6" height="15.0" fill="rgb(241,167,40)" rx="2" ry="2" />
<text  x="1192.04" y="415.5" ></text>
</g>
<g >
<title>native_send_call_func_single_ipi (36,012,461 samples, 0.03%)</title><rect x="1180.8" y="101" width="0.4" height="15.0" fill="rgb(210,23,5)" rx="2" ry="2" />
<text  x="1183.81" y="111.5" ></text>
</g>
<g >
<title>x86_pmu_disable_all (215,967,755 samples, 0.21%)</title><rect x="1174.2" y="133" width="2.5" height="15.0" fill="rgb(254,227,54)" rx="2" ry="2" />
<text  x="1177.23" y="143.5" ></text>
</g>
<g >
<title>scheduler_tick (35,920,588 samples, 0.03%)</title><rect x="10.0" y="213" width="0.4" height="15.0" fill="rgb(246,190,45)" rx="2" ry="2" />
<text  x="13.00" y="223.5" ></text>
</g>
<g >
<title>ktime_get_update_offsets_now (35,961,989 samples, 0.03%)</title><rect x="1182.9" y="277" width="0.4" height="15.0" fill="rgb(243,178,42)" rx="2" ry="2" />
<text  x="1185.87" y="287.5" ></text>
</g>
<g >
<title>call_timer_fn (35,996,654 samples, 0.03%)</title><rect x="1187.8" y="229" width="0.4" height="15.0" fill="rgb(234,135,32)" rx="2" ry="2" />
<text  x="1190.80" y="239.5" ></text>
</g>
<g >
<title>kernfs_fop_read_iter (27,404,039 samples, 0.03%)</title><rect x="1189.3" y="245" width="0.3" height="15.0" fill="rgb(252,218,52)" rx="2" ry="2" />
<text  x="1192.33" y="255.5" ></text>
</g>
<g >
<title>handle_mm_fault (25,495,608 samples, 0.02%)</title><rect x="1189.0" y="197" width="0.3" height="15.0" fill="rgb(234,135,32)" rx="2" ry="2" />
<text  x="1192.04" y="207.5" ></text>
</g>
<g >
<title>mod_timer (35,996,654 samples, 0.03%)</title><rect x="1187.8" y="197" width="0.4" height="15.0" fill="rgb(212,32,7)" rx="2" ry="2" />
<text  x="1190.80" y="207.5" ></text>
</g>
<g >
<title>clockevents_program_event (251,756,886 samples, 0.24%)</title><rect x="1184.1" y="261" width="2.9" height="15.0" fill="rgb(244,182,43)" rx="2" ry="2" />
<text  x="1187.10" y="271.5" ></text>
</g>
<g >
<title>all (103,245,185,402 samples, 100%)</title><rect x="10.0" y="485" width="1180.0" height="15.0" fill="rgb(213,39,9)" rx="2" ry="2" />
<text  x="13.00" y="495.5" ></text>
</g>
<g >
<title>nohz_balancer_kick (144,060,242 samples, 0.14%)</title><rect x="1179.6" y="181" width="1.6" height="15.0" fill="rgb(225,93,22)" rx="2" ry="2" />
<text  x="1182.58" y="191.5" ></text>
</g>
<g >
<title>shmem_get_folio_gfp (25,495,608 samples, 0.02%)</title><rect x="1189.0" y="85" width="0.3" height="15.0" fill="rgb(213,37,8)" rx="2" ry="2" />
<text  x="1192.04" y="95.5" ></text>
</g>
<g >
<title>run_timer_softirq (71,986,267 samples, 0.07%)</title><rect x="1187.4" y="261" width="0.8" height="15.0" fill="rgb(249,206,49)" rx="2" ry="2" />
<text  x="1190.39" y="271.5" ></text>
</g>
<g >
<title>[stress-ng] (103,124,512,820 samples, 99.88%)</title><rect x="10.4" y="357" width="1178.6" height="15.0" fill="rgb(241,167,40)" rx="2" ry="2" />
<text  x="13.41" y="367.5" >[stress-ng]</text>
</g>
<g >
<title>kvm_clock_get_cycles (35,899,474 samples, 0.03%)</title><rect x="1185.3" y="229" width="0.4" height="15.0" fill="rgb(209,18,4)" rx="2" ry="2" />
<text  x="1188.33" y="239.5" ></text>
</g>
<g >
<title>native_write_msr (71,942,633 samples, 0.07%)</title><rect x="1186.2" y="229" width="0.8" height="15.0" fill="rgb(237,151,36)" rx="2" ry="2" />
<text  x="1189.15" y="239.5" ></text>
</g>
<g >
<title>__run_timers (71,986,267 samples, 0.07%)</title><rect x="1187.4" y="245" width="0.8" height="15.0" fill="rgb(206,5,1)" rx="2" ry="2" />
<text  x="1190.39" y="255.5" ></text>
</g>
<g >
<title>unmap_region (30,970,162 samples, 0.03%)</title><rect x="1189.6" y="277" width="0.4" height="15.0" fill="rgb(219,64,15)" rx="2" ry="2" />
<text  x="1192.65" y="287.5" ></text>
</g>
<g >
<title>x64_sys_call (30,970,162 samples, 0.03%)</title><rect x="1189.6" y="357" width="0.4" height="15.0" fill="rgb(247,194,46)" rx="2" ry="2" />
<text  x="1192.65" y="367.5" ></text>
</g>
<g >
<title>unmap_vmas (30,970,162 samples, 0.03%)</title><rect x="1189.6" y="261" width="0.4" height="15.0" fill="rgb(243,176,42)" rx="2" ry="2" />
<text  x="1192.65" y="271.5" ></text>
</g>
<g >
<title>sched_clock_noinstr (35,964,826 samples, 0.03%)</title><rect x="1179.2" y="133" width="0.4" height="15.0" fill="rgb(253,222,53)" rx="2" ry="2" />
<text  x="1182.16" y="143.5" ></text>
</g>
<g >
<title>update_curr (72,060,938 samples, 0.07%)</title><rect x="1177.5" y="181" width="0.8" height="15.0" fill="rgb(227,105,25)" rx="2" ry="2" />
<text  x="1180.52" y="191.5" ></text>
</g>
<g >
<title>kvm_sched_clock_read (35,964,826 samples, 0.03%)</title><rect x="1179.2" y="117" width="0.4" height="15.0" fill="rgb(215,49,11)" rx="2" ry="2" />
<text  x="1182.16" y="127.5" ></text>
</g>
<g >
<title>account_process_tick (107,927,567 samples, 0.10%)</title><rect x="1165.6" y="213" width="1.2" height="15.0" fill="rgb(234,136,32)" rx="2" ry="2" />
<text  x="1168.60" y="223.5" ></text>
</g>
<g >
<title>__update_load_avg_se (71,968,463 samples, 0.07%)</title><rect x="1178.3" y="165" width="0.9" height="15.0" fill="rgb(254,227,54)" rx="2" ry="2" />
<text  x="1181.34" y="175.5" ></text>
</g>
<g >
<title>perf_adjust_freq_unthr_context (899,331,551 samples, 0.87%)</title><rect x="1167.2" y="181" width="10.3" height="15.0" fill="rgb(236,146,35)" rx="2" ry="2" />
<text  x="1170.24" y="191.5" ></text>
</g>
<g >
<title>__libc_start_main (103,160,433,415 samples, 99.92%)</title><rect x="10.0" y="437" width="1179.0" height="15.0" fill="rgb(236,142,34)" rx="2" ry="2" />
<text  x="13.00" y="447.5" >__libc_start_main</text>
</g>
<g >
<title>handle_softirqs (71,986,267 samples, 0.07%)</title><rect x="1187.4" y="277" width="0.8" height="15.0" fill="rgb(238,156,37)" rx="2" ry="2" />
<text  x="1190.39" y="287.5" ></text>
</g>
<g >
<title>__do_fault (25,495,608 samples, 0.02%)</title><rect x="1189.0" y="117" width="0.3" height="15.0" fill="rgb(221,74,17)" rx="2" ry="2" />
<text  x="1192.04" y="127.5" ></text>
</g>
<g >
<title>do_syscall_64 (30,970,162 samples, 0.03%)</title><rect x="1189.6" y="373" width="0.4" height="15.0" fill="rgb(209,20,4)" rx="2" ry="2" />
<text  x="1192.65" y="383.5" ></text>
</g>
<g >
<title>x64_sys_call (27,404,039 samples, 0.03%)</title><rect x="1189.3" y="309" width="0.3" height="15.0" fill="rgb(247,194,46)" rx="2" ry="2" />
<text  x="1192.33" y="319.5" ></text>
</g>
<g >
<title>lapic_next_event (107,934,905 samples, 0.10%)</title><rect x="1185.7" y="245" width="1.3" height="15.0" fill="rgb(205,4,0)" rx="2" ry="2" />
<text  x="1188.74" y="255.5" ></text>
</g>
<g >
<title>__mod_timer (35,996,654 samples, 0.03%)</title><rect x="1187.8" y="181" width="0.4" height="15.0" fill="rgb(234,136,32)" rx="2" ry="2" />
<text  x="1190.80" y="191.5" ></text>
</g>
<g >
<title>shmem_add_to_page_cache (25,495,608 samples, 0.02%)</title><rect x="1189.0" y="53" width="0.3" height="15.0" fill="rgb(250,209,50)" rx="2" ry="2" />
<text  x="1192.04" y="63.5" ></text>
</g>
<g >
<title>entry_SYSCALL_64_after_hwframe (27,404,039 samples, 0.03%)</title><rect x="1189.3" y="341" width="0.3" height="15.0" fill="rgb(218,63,15)" rx="2" ry="2" />
<text  x="1192.33" y="351.5" ></text>
</g>
<g >
<title>native_write_msr (35,920,588 samples, 0.03%)</title><rect x="10.0" y="133" width="0.4" height="15.0" fill="rgb(237,151,36)" rx="2" ry="2" />
<text  x="13.00" y="143.5" ></text>
</g>
<g >
<title>[libc.so.6] (35,920,588 samples, 0.03%)</title><rect x="10.0" y="357" width="0.4" height="15.0" fill="rgb(223,84,20)" rx="2" ry="2" />
<text  x="13.00" y="367.5" ></text>
</g>
<g >
<title>__handle_mm_fault (25,495,608 samples, 0.02%)</title><rect x="1189.0" y="181" width="0.3" height="15.0" fill="rgb(207,9,2)" rx="2" ry="2" />
<text  x="1192.04" y="191.5" ></text>
</g>
<g >
<title>entry_SYSCALL_64_after_hwframe (25,495,608 samples, 0.02%)</title><rect x="1189.0" y="341" width="0.3" height="15.0" fill="rgb(218,63,15)" rx="2" ry="2" />
<text  x="1192.04" y="351.5" ></text>
</g>
<g >
<title>x64_sys_call (25,495,608 samples, 0.02%)</title><rect x="1189.0" y="309" width="0.3" height="15.0" fill="rgb(247,194,46)" rx="2" ry="2" />
<text  x="1192.04" y="319.5" ></text>
</g>
<g >
<title>shmem_fault (25,495,608 samples, 0.02%)</title><rect x="1189.0" y="101" width="0.3" height="15.0" fill="rgb(236,143,34)" rx="2" ry="2" />
<text  x="1192.04" y="111.5" ></text>
</g>
<g >
<title>tick_sched_handle (1,367,248,190 samples, 1.32%)</title><rect x="1165.6" y="245" width="15.6" height="15.0" fill="rgb(219,68,16)" rx="2" ry="2" />
<text  x="1168.60" y="255.5" ></text>
</g>
<g >
<title>irq_exit_rcu (108,058,277 samples, 0.10%)</title><rect x="1187.4" y="309" width="1.2" height="15.0" fill="rgb(254,227,54)" rx="2" ry="2" />
<text  x="1190.39" y="319.5" ></text>
</g>
<g >
<title>smp_call_function_single_async (36,012,461 samples, 0.03%)</title><rect x="1180.8" y="149" width="0.4" height="15.0" fill="rgb(208,14,3)" rx="2" ry="2" />
<text  x="1183.81" y="159.5" ></text>
</g>
<g >
<title>read (27,404,039 samples, 0.03%)</title><rect x="1189.3" y="357" width="0.3" height="15.0" fill="rgb(252,216,51)" rx="2" ry="2" />
<text  x="1192.33" y="367.5" ></text>
</g>
<g >
<title>[libc.so.6] (103,160,433,415 samples, 99.92%)</title><rect x="10.0" y="421" width="1179.0" height="15.0" fill="rgb(223,84,20)" rx="2" ry="2" />
<text  x="13.00" y="431.5" >[libc.so.6]</text>
</g>
<g >
<title>entry_SYSCALL_64_after_hwframe (30,970,162 samples, 0.03%)</title><rect x="1189.6" y="389" width="0.4" height="15.0" fill="rgb(218,63,15)" rx="2" ry="2" />
<text  x="1192.65" y="399.5" ></text>
</g>
<g >
<title>__get_user_pages (25,495,608 samples, 0.02%)</title><rect x="1189.0" y="213" width="0.3" height="15.0" fill="rgb(243,175,42)" rx="2" ry="2" />
<text  x="1192.04" y="223.5" ></text>
</g>
<g >
<title>__mm_populate (25,495,608 samples, 0.02%)</title><rect x="1189.0" y="245" width="0.3" height="15.0" fill="rgb(218,61,14)" rx="2" ry="2" />
<text  x="1192.04" y="255.5" ></text>
</g>
<g >
<title>__mmap (25,495,608 samples, 0.02%)</title><rect x="1189.0" y="357" width="0.3" height="15.0" fill="rgb(227,104,25)" rx="2" ry="2" />
<text  x="1192.04" y="367.5" ></text>
</g>
<g >
<title>zap_pte_range (30,970,162 samples, 0.03%)</title><rect x="1189.6" y="197" width="0.4" height="15.0" fill="rgb(231,120,28)" rx="2" ry="2" />
<text  x="1192.65" y="207.5" ></text>
</g>
<g >
<title>__vm_munmap (30,970,162 samples, 0.03%)</title><rect x="1189.6" y="325" width="0.4" height="15.0" fill="rgb(231,121,28)" rx="2" ry="2" />
<text  x="1192.65" y="335.5" ></text>
</g>
<g >
<title>[stress-ng] (103,160,433,415 samples, 99.92%)</title><rect x="10.0" y="373" width="1179.0" height="15.0" fill="rgb(241,167,40)" rx="2" ry="2" />
<text  x="13.00" y="383.5" >[stress-ng]</text>
</g>
<g >
<title>update_process_times (1,367,248,190 samples, 1.32%)</title><rect x="1165.6" y="229" width="15.6" height="15.0" fill="rgb(250,209,50)" rx="2" ry="2" />
<text  x="1168.60" y="239.5" ></text>
</g>
<g >
<title>pvclock_clocksource_read_nowd (35,899,474 samples, 0.03%)</title><rect x="1185.3" y="213" width="0.4" height="15.0" fill="rgb(218,63,15)" rx="2" ry="2" />
<text  x="1188.33" y="223.5" ></text>
</g>
<g >
<title>task_tick_fair (179,994,227 samples, 0.17%)</title><rect x="1177.5" y="197" width="2.1" height="15.0" fill="rgb(217,57,13)" rx="2" ry="2" />
<text  x="1180.52" y="207.5" ></text>
</g>
<g >
<title>x86_pmu_enable (71,926,422 samples, 0.07%)</title><rect x="1176.7" y="165" width="0.8" height="15.0" fill="rgb(244,179,43)" rx="2" ry="2" />
<text  x="1179.70" y="175.5" ></text>
</g>
<g >
<title>amd_pmu_enable_all (71,926,422 samples, 0.07%)</title><rect x="1176.7" y="149" width="0.8" height="15.0" fill="rgb(217,57,13)" rx="2" ry="2" />
<text  x="1179.70" y="159.5" ></text>
</g>
<g >
<title>__raw_spin_lock_irqsave (143,789,832 samples, 0.14%)</title><rect x="1181.2" y="261" width="1.7" height="15.0" fill="rgb(233,132,31)" rx="2" ry="2" />
<text  x="1184.22" y="271.5" ></text>
</g>
<g >
<title>kick_ilb (72,041,863 samples, 0.07%)</title><rect x="1180.4" y="165" width="0.8" height="15.0" fill="rgb(240,163,39)" rx="2" ry="2" />
<text  x="1183.40" y="175.5" ></text>
</g>
<g >
<title>vm_mmap_pgoff (25,495,608 samples, 0.02%)</title><rect x="1189.0" y="261" width="0.3" height="15.0" fill="rgb(237,150,35)" rx="2" ry="2" />
<text  x="1192.04" y="271.5" ></text>
</g>
<g >
<title>seq_read_iter (10,768,454 samples, 0.01%)</title><rect x="1189.5" y="229" width="0.1" height="15.0" fill="rgb(232,128,30)" rx="2" ry="2" />
<text  x="1192.52" y="239.5" ></text>
</g>
<g >
<title>[stress-ng] (103,160,433,415 samples, 99.92%)</title><rect x="10.0" y="405" width="1179.0" height="15.0" fill="rgb(241,167,40)" rx="2" ry="2" />
<text  x="13.00" y="415.5" >[stress-ng]</text>
</g>
<g >
<title>sysvec_apic_timer_interrupt (35,920,588 samples, 0.03%)</title><rect x="10.0" y="325" width="0.4" height="15.0" fill="rgb(220,69,16)" rx="2" ry="2" />
<text  x="13.00" y="335.5" ></text>
</g>
<g >
<title>sched_core_idle_cpu (36,072,010 samples, 0.03%)</title><rect x="1188.2" y="293" width="0.4" height="15.0" fill="rgb(231,120,28)" rx="2" ry="2" />
<text  x="1191.21" y="303.5" ></text>
</g>
<g >
<title>__munmap (30,970,162 samples, 0.03%)</title><rect x="1189.6" y="405" width="0.4" height="15.0" fill="rgb(211,29,7)" rx="2" ry="2" />
<text  x="1192.65" y="415.5" ></text>
</g>
<g >
<title>amd_pmu_disable_all (791,457,196 samples, 0.77%)</title><rect x="1167.7" y="149" width="9.0" height="15.0" fill="rgb(213,38,9)" rx="2" ry="2" />
<text  x="1170.65" y="159.5" ></text>
</g>
<g >
<title>[stress-ng] (53,434,675 samples, 0.05%)</title><rect x="1189.0" y="389" width="0.6" height="15.0" fill="rgb(241,167,40)" rx="2" ry="2" />
<text  x="1192.04" y="399.5" ></text>
</g>
<g >
<title>tick_program_event (287,779,382 samples, 0.28%)</title><rect x="1183.7" y="277" width="3.3" height="15.0" fill="rgb(241,166,39)" rx="2" ry="2" />
<text  x="1186.69" y="287.5" ></text>
</g>
<g >
<title>do_read_fault (25,495,608 samples, 0.02%)</title><rect x="1189.0" y="133" width="0.3" height="15.0" fill="rgb(223,84,20)" rx="2" ry="2" />
<text  x="1192.04" y="143.5" ></text>
</g>
<g >
<title>__hrtimer_run_queues (35,920,588 samples, 0.03%)</title><rect x="10.0" y="277" width="0.4" height="15.0" fill="rgb(237,150,35)" rx="2" ry="2" />
<text  x="13.00" y="287.5" ></text>
</g>
<g >
<title>__sysvec_apic_timer_interrupt (35,920,588 samples, 0.03%)</title><rect x="10.0" y="309" width="0.4" height="15.0" fill="rgb(242,173,41)" rx="2" ry="2" />
<text  x="13.00" y="319.5" ></text>
</g>
<g >
<title>sync_regs (35,914,015 samples, 0.03%)</title><rect x="1188.6" y="341" width="0.4" height="15.0" fill="rgb(228,106,25)" rx="2" ry="2" />
<text  x="1191.62" y="351.5" ></text>
</g>
<g >
<title>_raw_spin_lock_irqsave (35,996,654 samples, 0.03%)</title><rect x="1187.8" y="149" width="0.4" height="15.0" fill="rgb(247,195,46)" rx="2" ry="2" />
<text  x="1190.80" y="159.5" ></text>
</g>
<g >
<title>sched_clock_cpu (35,964,826 samples, 0.03%)</title><rect x="1179.2" y="165" width="0.4" height="15.0" fill="rgb(229,113,27)" rx="2" ry="2" />
<text  x="1182.16" y="175.5" ></text>
</g>
<g >
<title>ksys_mmap_pgoff (25,495,608 samples, 0.02%)</title><rect x="1189.0" y="277" width="0.3" height="15.0" fill="rgb(245,185,44)" rx="2" ry="2" />
<text  x="1192.04" y="287.5" ></text>
</g>
<g >
<title>_raw_spin_lock (35,972,273 samples, 0.03%)</title><rect x="1164.0" y="229" width="0.4" height="15.0" fill="rgb(239,160,38)" rx="2" ry="2" />
<text  x="1166.95" y="239.5" ></text>
</g>
<g >
<title>kvm_clock_get_cycles (35,961,989 samples, 0.03%)</title><rect x="1182.9" y="261" width="0.4" height="15.0" fill="rgb(209,18,4)" rx="2" ry="2" />
<text  x="1185.87" y="271.5" ></text>
</g>
<g >
<title>__smp_call_single_queue (36,012,461 samples, 0.03%)</title><rect x="1180.8" y="117" width="0.4" height="15.0" fill="rgb(219,66,15)" rx="2" ry="2" />
<text  x="1183.81" y="127.5" ></text>
</g>
<g >
<title>asm_sysvec_apic_timer_interrupt (2,158,426,870 samples, 2.09%)</title><rect x="1164.0" y="341" width="24.6" height="15.0" fill="rgb(232,127,30)" rx="2" ry="2" />
<text  x="1166.95" y="351.5" >a..</text>
</g>
<g >
<title>stress-ng (84,751,986 samples, 0.08%)</title><rect x="1189.0" y="469" width="1.0" height="15.0" fill="rgb(230,115,27)" rx="2" ry="2" />
<text  x="1192.03" y="479.5" ></text>
</g>
<g >
<title>__x64_sys_munmap (30,970,162 samples, 0.03%)</title><rect x="1189.6" y="341" width="0.4" height="15.0" fill="rgb(206,7,1)" rx="2" ry="2" />
<text  x="1192.65" y="351.5" ></text>
</g>
<g >
<title>folio_mark_accessed (30,970,162 samples, 0.03%)</title><rect x="1189.6" y="181" width="0.4" height="15.0" fill="rgb(216,52,12)" rx="2" ry="2" />
<text  x="1192.65" y="191.5" ></text>
</g>
<g >
<title>__raw_spin_lock_irqsave (35,996,654 samples, 0.03%)</title><rect x="1187.8" y="133" width="0.4" height="15.0" fill="rgb(233,132,31)" rx="2" ry="2" />
<text  x="1190.80" y="143.5" ></text>
</g>
<g >
<title>update_process_times (35,920,588 samples, 0.03%)</title><rect x="10.0" y="229" width="0.4" height="15.0" fill="rgb(250,209,50)" rx="2" ry="2" />
<text  x="13.00" y="239.5" ></text>
</g>
<g >
<title>populate_vma_page_range (25,495,608 samples, 0.02%)</title><rect x="1189.0" y="229" width="0.3" height="15.0" fill="rgb(224,88,21)" rx="2" ry="2" />
<text  x="1192.04" y="239.5" ></text>
</g>
<g >
<title>stress-ng-cpu (103,160,433,415 samples, 99.92%)</title><rect x="10.0" y="469" width="1179.0" height="15.0" fill="rgb(220,71,17)" rx="2" ry="2" />
<text  x="13.00" y="479.5" >stress-ng-cpu</text>
</g>
<g >
<title>vfs_read (27,404,039 samples, 0.03%)</title><rect x="1189.3" y="261" width="0.3" height="15.0" fill="rgb(224,88,21)" rx="2" ry="2" />
<text  x="1192.33" y="271.5" ></text>
</g>
<g >
<title>__hrtimer_run_queues (1,511,070,577 samples, 1.46%)</title><rect x="1164.0" y="277" width="17.2" height="15.0" fill="rgb(237,150,35)" rx="2" ry="2" />
<text  x="1166.95" y="287.5" ></text>
</g>
<g >
<title>handle_pte_fault (25,495,608 samples, 0.02%)</title><rect x="1189.0" y="165" width="0.3" height="15.0" fill="rgb(217,57,13)" rx="2" ry="2" />
<text  x="1192.04" y="175.5" ></text>
</g>
<g >
<title>kvm_steal_clock (71,974,175 samples, 0.07%)</title><rect x="1166.0" y="197" width="0.8" height="15.0" fill="rgb(224,90,21)" rx="2" ry="2" />
<text  x="1169.01" y="207.5" ></text>
</g>
<g >
<title>__x64_sys_read (27,404,039 samples, 0.03%)</title><rect x="1189.3" y="293" width="0.3" height="15.0" fill="rgb(219,68,16)" rx="2" ry="2" />
<text  x="1192.33" y="303.5" ></text>
</g>
<g >
<title>[libc.so.6] (84,404,837 samples, 0.08%)</title><rect x="1189.0" y="421" width="1.0" height="15.0" fill="rgb(223,84,20)" rx="2" ry="2" />
<text  x="1192.04" y="431.5" ></text>
</g>
<g >
<title>native_queued_spin_lock_slowpath (107,850,114 samples, 0.10%)</title><rect x="1164.4" y="197" width="1.2" height="15.0" fill="rgb(238,153,36)" rx="2" ry="2" />
<text  x="1167.36" y="207.5" ></text>
</g>
<g >
<title>prb_retire_rx_blk_timer_expired (35,996,654 samples, 0.03%)</title><rect x="1187.8" y="213" width="0.4" height="15.0" fill="rgb(228,106,25)" rx="2" ry="2" />
<text  x="1190.80" y="223.5" ></text>
</g>
</g>
</svg>
